HIERARCHY
ROOT Hips
{
 OFFSET 0.000000 0.000000 0.000000
 CHANNELS 6 Xposition Yposition Zposition Yrotation Xrotation Zrotation
 JOINT Chest
 {
  OFFSET 0.000000 9.585900 0.002600
  CHANNELS 3 Yrotation Xrotation Zrotation
  JOINT Chest2
  {
   OFFSET 0.000000 9.601200 -0.005300
   CHANNELS 3 Yrotation Xrotation Zrotation
   JOINT Chest3
   {
    OFFSET 0.000000 9.561800 0.000000
    CHANNELS 3 Yrotation Xrotation Zrotation
    JOINT Chest4
    {
     OFFSET 0.000000 9.552100 0.000000
     CHANNELS 3 Yrotation Xrotation Zrotation
     JOINT Neck
     {
      OFFSET 0.000000 14.453000 0.000000
      CHANNELS 3 Yrotation Xrotation Zrotation
      JOINT Head
      {
       OFFSET 0.000000 8.936500 -0.011300
       CHANNELS 3 Yrotation Xrotation Zrotation
       End Site
       {
        OFFSET 0.000000 17.073600 -0.006000
       }
      }
     }
     JOINT RightCollar
     {
      OFFSET -2.921100 9.558500 0.000000
      CHANNELS 3 Yrotation Xrotation Zrotation
      JOINT RightShoulder
      {
       OFFSET -13.519700 0.000000 0.000000
       CHANNELS 3 Yrotation Xrotation Zrotation
       JOINT RightElbow
       {
        OFFSET 0.000000 -29.696600 0.000000
        CHANNELS 3 Yrotation Xrotation Zrotation
        JOINT RightWrist
        {
         OFFSET 0.000000 -24.004700 0.000000
         CHANNELS 3 Yrotation Xrotation Zrotation
         End Site
         {
          OFFSET 0.000000 -17.728500 0.000000
         }
        }
       }
      }
     }
     JOINT LeftCollar
     {
      OFFSET 2.921100 9.558500 0.000000
      CHANNELS 3 Yrotation Xrotation Zrotation
      JOINT LeftShoulder
      {
       OFFSET 13.519700 0.000000 0.000000
       CHANNELS 3 Yrotation Xrotation Zrotation
       JOINT LeftElbow
       {
        OFFSET 0.000000 -29.696600 0.000000
        CHANNELS 3 Yrotation Xrotation Zrotation
        JOINT LeftWrist
        {
         OFFSET 0.000000 -24.004700 0.000000
         CHANNELS 3 Yrotation Xrotation Zrotation
         End Site
         {
          OFFSET 0.000000 -17.728500 0.000000
         }
        }
       }
      }
     }
    }
   }
  }
 }
 JOINT RightHip
 {
  OFFSET -7.771700 -0.012900 -0.001300
  CHANNELS 3 Yrotation Xrotation Zrotation
  JOINT RightKnee
  {
   OFFSET 0.000000 -40.869800 0.001200
   CHANNELS 3 Yrotation Xrotation Zrotation
   JOINT RightAnkle
   {
    OFFSET 0.000000 -39.717900 0.002100
    CHANNELS 3 Yrotation Xrotation Zrotation
    JOINT RightToe
    {
     OFFSET 0.000000 -4.965400 11.033500
     CHANNELS 3 Yrotation Xrotation Zrotation
     End Site
     {
      OFFSET 0.000000 -1.423100 5.872300
     }
    }
   }
  }
 }
 JOINT LeftHip
 {
  OFFSET 7.771700 -0.012900 -0.001300
  CHANNELS 3 Yrotation Xrotation Zrotation
  JOINT LeftKnee
  {
   OFFSET 0.000000 -40.869800 0.001200
   CHANNELS 3 Yrotation Xrotation Zrotation
   JOINT LeftAnkle
   {
    OFFSET 0.000000 -39.717900 0.002100
    CHANNELS 3 Yrotation Xrotation Zrotation
    JOINT LeftToe
    {
     OFFSET 0.000000 -4.965400 11.033500
     CHANNELS 3 Yrotation Xrotation Zrotation
     End Site
     {
      OFFSET 0.000000 -1.423100 5.872300
     }
    }
   }
  }
 }
}
MOTION
Frames: 16
Frame Time: 0.008333
0.000000 85.388000 0.000000 0.000000 -5.767877 0.000000 0.000000 11.653817 0.000000 0.000000 -5.885947 0.000000 0.000000 -0.000000 0.000000 0.000000 -0.000000 0.000000 0.000000 12.528835 0.000000 0.000000 0.711642 0.000000 0.000000 -0.000000 0.000000 0.000000 0.000000 -90.000000 0.000000 -2.309062 0.000000 0.000000 2.309062 0.000000 0.000000 -0.000000 0.000000 0.000000 -0.000000 90.000000 0.000000 -2.309062 0.000000 0.000000 2.309062 0.000000 0.000000 8.520406 0.000000 0.000000 1.905762 0.000000 -0.000000 -4.658285 0.000000 0.000000 -0.000000 0.000000 0.000000 8.520406 0.000000 0.000000 1.905762 0.000000 -0.000000 -4.658285 0.000000 0.000000 -0.000000 0.000000
-5.975786 52.260368 29.320482 171.942484 -37.415504 -2.362350 4.139977 22.276413 2.690289 0.482402 3.190940 0.458249 0.792538 5.146285 0.755832 3.325882 18.749506 3.204446 6.530824 17.937631 -0.214177 12.084526 -2.211177 -2.524273 -3.425807 1.835254 -1.796128 -4.045306 -3.191863 1.680919 -172.105349 -75.749305 -172.552653 3.967675 3.452539 4.442040 -6.632119 1.059189 -0.536725 1.493369 -24.139380 2.681706 175.502405 -54.576069 168.848394 -3.305750 -25.315132 23.627362 -4.624595 -43.992026 3.622604 -112.187434 86.260456 -107.326367 0.251516 -8.810201 -3.125960 0.514622 -0.913545 0.216849 0.039149 -40.414031 5.645659 71.780131 83.922516 61.425826 -5.936981 -12.822091 10.156869 0.392395 1.294949 0.206889
-5.976112 52.260406 29.325090 171.932067 -37.414367 -2.372114 4.157382 22.284652 2.708794 0.483654 3.212432 0.458363 0.793238 5.137550 0.757413 3.335655 18.795943 3.210052 6.555646 17.931586 -0.202234 12.145229 -2.168185 -2.490167 -3.419280 1.847472 -1.793127 -4.016727 -3.217993 1.690349 -172.247067 -75.724245 -172.443999 3.993050 3.460127 4.374280 -6.640740 1.066561 -0.546383 1.563429 -24.195027 2.649846 175.437862 -54.430801 168.919267 -3.304222 -25.399080 23.570189 -4.637456 -43.990083 3.645393 -111.983618 86.257121 -107.121505 0.262072 -8.801441 -3.130933 0.513282 -0.918828 0.221679 0.053818 -40.418322 5.667715 71.696178 83.939854 61.339020 -5.925681 -12.812766 10.172276 0.384475 1.286934 0.206002
-5.978303 52.260957 29.329260 171.927241 -37.416252 -2.376161 4.166659 22.326088 2.713992 0.484467 3.196897 0.459979 0.795749 5.136385 0.760550 3.344892 18.841276 3.211605 6.579476 17.940077 -0.181815 12.181990 -2.152722 -2.459529 -3.412499 1.857994 -1.788364 -3.976884 -3.192555 1.712616 -172.483822 -75.652730 -172.252324 4.027130 3.478950 4.308567 -6.644337 1.076944 -0.553006 1.623704 -24.250383 2.622789 175.243968 -54.325844 169.070410 -3.274327 -25.444018 23.500626 -4.649094 -43.985371 3.655350 -111.840965 86.255458 -106.981488 0.276145 -8.799410 -3.132938 0.508898 -0.917652 0.220893 0.075220 -40.419322 5.675463 71.634687 83.948657 61.278222 -5.932694 -12.799007 10.183024 0.388197 1.275865 0.205790
-5.980094 52.261686 29.333638 171.932454 -37.416417 -2.390377 4.171969 22.350687 2.724378 0.481381 3.179994 0.462266 0.806222 5.210440 0.759151 3.351588 18.824980 3.214313 6.602439 17.964230 -0.154921 12.195398 -2.162316 -2.436105 -3.416544 1.830205 -1.783421 -3.952465 -3.149666 1.729111 -172.656153 -75.607826 -172.104933 4.059670 3.496097 4.264807 -6.649444 1.089689 -0.556273 1.715335 -24.280878 2.582899 174.912212 -54.235536 169.283423 -3.220738 -25.441857 23.431813 -4.674131 -43.980877 3.669030 -111.728227 86.257639 -106.869422 0.291332 -8.794324 -3.138599 0.502548 -0.918690 0.219213 0.103298 -40.425934 5.679247 71.524873 83.967023 61.187066 -5.942730 -12.779318 10.183627 0.397087 1.263020 0.214695
-5.983234 52.263113 29.336851 171.938760 -37.420930 -2.396882 4.179578 22.384881 2.729317 0.478458 3.184877 0.462516 0.815933 5.231051 0.762079 3.358612 18.830755 3.217635 6.608951 17.967346 -0.136782 12.201157 -2.157827 -2.404555 -3.425189 1.805574 -1.779859 -3.932919 -3.121653 1.743618 -172.778959 -75.582700 -172.007289 4.094108 3.519024 4.242977 -6.661916 1.103144 -0.557250 1.806466 -24.235420 2.544048 174.524554 -54.109702 169.523385 -3.147783 -25.397252 23.365874 -4.690349 -43.971708 3.673282 -111.638339 86.261589 -106.782526 0.294666 -8.795448 -3.143906 0.502154 -0.916046 0.221178 0.118326 -40.422968 5.676834 71.463918 83.969455 61.128522 -5.945969 -12.768396 10.193454 0.402511 1.254039 0.204497
-5.986920 52.264667 29.339522 171.948739 -37.424511 -2.401555 4.177540 22.399627 2.730156 0.482321 3.205271 0.461558 0.824980 5.239246 0.766222 3.367714 18.847510 3.222518 6.607257 17.969885 -0.120564 12.190674 -2.182478 -2.402612 -3.437066 1.866011 -1.781301 -3.922722 -3.176328 1.767284 -172.868954 -75.562812 -171.941649 4.124120 3.547424 4.238798 -6.682577 1.082182 -0.554077 1.814797 -24.203225 2.540426 174.211549 -54.067806 169.757101 -3.072413 -25.322508 23.320193 -4.710276 -43.961643 3.671673 -111.555466 86.269434 -106.704489 0.301911 -8.801127 -3.150789 0.494342 -0.911423 0.222070 0.134364 -40.419565 5.666048 71.397202 83.967969 61.067320 -5.953519 -12.760441 10.199821 0.411837 1.251074 0.204326
-5.990249 52.265778 29.342298 171.949132 -37.423022 -2.401337 4.185010 22.408073 2.733119 0.491218 3.223200 0.463426 0.819064 5.229902 0.766088 3.386509 18.880879 3.230810 6.598405 17.971181 -0.106815 12.180948 -2.202774 -2.399721 -3.456089 1.877388 -1.783227 -3.914960 -3.182040 1.785566 -172.926168 -75.548012 -171.898907 4.144181 3.541834 4.238548 -6.704743 1.063579 -0.551146 1.803585 -24.164398 2.545928 174.002617 -54.038637 169.916754 -3.019258 -25.229884 23.304362 -4.713876 -43.960301 3.669497 -111.466677 86.271941 -106.614559 0.300084 -8.801114 -3.154192 0.497054 -0.911482 0.222583 0.155663 -40.419613 5.659040 71.372607 83.961342 61.034611 -5.937927 -12.760419 10.216796 0.382989 1.249282 0.202056
-5.992715 52.266916 29.344376 171.949303 -37.422320 -2.403505 4.202999 22.424102 2.741899 0.493439 3.230207 0.464843 0.812297 5.222991 0.766900 3.400701 18.913772 3.238605 6.582438 17.945533 -0.104632 12.149594 -2.148671 -2.320454 -3.476057 1.841522 -1.782423 -3.911266 -3.169859 1.792119 -172.936707 -75.553631 -171.892498 4.160249 3.545954 4.238445 -6.719516 1.075314 -0.550553 1.772500 -24.149820 2.564505 173.921682 -53.999478 169.990143 -3.014442 -25.123657 23.309830 -4.717251 -43.959523 3.671056 -111.390675 86.266699 -106.535290 0.298952 -8.798114 -3.157031 0.499527 -0.919872 0.224298 0.173818 -40.420055 5.653953 71.343721 83.958098 61.008456 -5.938513 -12.759969 10.222600 0.383567 1.248052 0.199994
-5.995018 52.267725 29.345817 171.954746 -37.420682 -2.406858 4.211189 22.441511 2.749221 0.506938 3.263757 0.468285 0.803248 5.205525 0.766534 3.404174 18.929853 3.241034 6.568308 17.918250 -0.103323 12.106495 -2.132718 -2.273159 -3.489956 1.894083 -1.787773 -3.916158 -3.247219 1.810653 -172.958953 -75.538733 -171.870304 4.173817 3.591226 4.243480 -6.722068 1.085146 -0.545144 1.726891 -24.126355 2.591472 174.027870 -53.965510 169.922296 -3.048112 -25.052961 23.331362 -4.724851 -43.958188 3.673698 -111.356028 86.272948 -106.502885 0.290717 -8.802202 -3.153405 0.503335 -0.918764 0.222761 0.189653 -40.422136 5.648473 71.306664 83.958446 60.975472 -5.950589 -12.756337 10.230350 0.377815 1.243081 0.191170
-5.997763 52.268180 29.346350 171.968335 -37.419125 -2.409167 4.211544 22.460681 2.748753 0.500549 3.257018 0.468653 0.812509 5.229035 0.768268 3.407435 18.944532 3.245481 6.550126 17.912314 -0.095975 12.067284 -2.157358 -2.253000 -3.504956 1.887037 -1.790264 -3.926976 -3.250264 1.826116 -172.964447 -75.536855 -171.845966 4.204362 3.636750 4.248242 -6.707082 1.157339 -0.535851 1.657234 -24.155733 2.625646 174.328041 -53.930585 169.708510 -3.109160 -25.024565 23.337958 -4.734710 -43.958870 3.669508 -111.366986 86.271108 -106.519542 0.289852 -8.803098 -3.146948 0.503246 -0.922709 0.220264 0.199269 -40.424067 5.637029 71.280626 83.957965 60.950541 -5.962192 -12.752224 10.235411 0.379987 1.240524 0.191229
-6.000025 52.268305 29.346008 171.971251 -37.419088 -2.404620 4.224662 22.497266 2.751798 0.489692 3.233993 0.467124 0.832457 5.289211 0.774615 3.397867 18.921477 3.242453 6.532364 17.903692 -0.086218 12.025962 -2.187020 -2.237232 -3.517949 1.865297 -1.790754 -3.935208 -3.236708 1.835536 -173.020784 -75.542683 -171.783106 4.211435 3.603434 4.253720 -6.703429 1.172008 -0.524517 1.589425 -24.117781 2.670179 174.763926 -53.868304 169.401844 -3.194707 -25.001587 23.286329 -4.732077 -43.960490 3.663074 -111.400623 86.266753 -106.556862 0.291736 -8.802531 -3.142924 0.500716 -0.927366 0.220145 0.207558 -40.423962 5.628222 71.289974 83.955293 60.955088 -5.963051 -12.750381 10.234991 0.377436 1.236585 0.193212
-6.000185 52.267956 29.345315 171.975483 -37.418236 -2.410786 4.238404 22.521684 2.762658 0.489151 3.234760 0.467993 0.832156 5.297464 0.776047 3.400447 18.934200 3.246039 6.513480 17.894051 -0.080223 11.981127 -2.220964 -2.223582 -3.519103 1.873912 -1.797689 -3.948463 -3.253285 1.847464 -173.069841 -75.524034 -171.730497 4.214411 3.594888 4.262561 -6.697384 1.192180 -0.513003 1.522809 -24.073295 2.721096 175.306776 -53.791514 169.010443 -3.285841 -24.985964 23.161017 -4.735057 -43.961617 3.671359 -111.404050 86.261207 -106.560588 0.288870 -8.801704 -3.140107 0.503402 -0.931659 0.221656 0.219506 -40.427194 5.630826 71.307764 83.958615 60.976746 -5.975661 -12.748287 10.240765 0.384228 1.232810 0.192843
-6.000582 52.266472 29.344762 171.984935 -37.409970 -2.416804 4.240121 22.528535 2.766864 0.496869 3.259284 0.469763 0.827382 5.290016 0.777789 3.402041 18.945672 3.249252 6.491602 17.884166 -0.074897 11.933157 -2.257575 -2.218419 -3.526246 1.880819 -1.798134 -3.950134 -3.263740 1.844770 -173.099349 -75.501455 -171.700444 4.231893 3.591723 4.269132 -6.688974 1.218188 -0.501956 1.475764 -24.021750 2.774522 175.916352 -53.701318 168.551759 -3.371410 -24.966874 22.952637 -4.740616 -43.972365 3.675630 -111.458787 86.255820 -106.615984 0.286754 -8.798005 -3.137864 0.504693 -0.939286 0.222889 0.223490 -40.438309 5.628837 71.345533 83.956321 61.017223 -5.987627 -12.747715 10.243744 0.386394 1.232254 0.192777
-6.000662 52.265264 29.342766 172.006695 -37.406716 -2.428989 4.225762 22.530833 2.767310 0.500312 3.266574 0.470690 0.825775 5.293226 0.779020 3.406043 18.970228 3.253448 6.473299 17.872284 -0.073638 11.878047 -2.297976 -2.215639 -3.529072 1.920966 -1.797653 -3.945991 -3.299456 1.839297 -173.112325 -75.470813 -171.693648 4.276971 3.599648 4.277829 -6.679659 1.250417 -0.487186 1.464296 -23.966671 2.822014 176.570046 -53.599409 168.036385 -3.438830 -24.934099 22.650352 -4.754723 -43.974762 3.678803 -111.575673 86.255005 -106.734825 0.280440 -8.806182 -3.137069 0.503392 -0.939973 0.226019 0.230011 -40.444439 5.624295 71.332754 83.963493 61.015609 -6.008470 -12.746129 10.237622 0.406314 1.232607 0.204258
-6.001474 52.263194 29.340799 172.014718 -37.397480 -2.426366 4.221417 22.540377 2.764987 0.506363 3.293522 0.470930 0.817571 5.262996 0.777146 3.408395 18.991635 3.253554 6.438314 17.866272 -0.069782 11.837447 -2.349534 -2.226507 -3.538326 1.935188 -1.792819 -3.925551 -3.305338 1.830239 -173.124968 -75.433531 -171.691781 4.292427 3.608614 4.278542 -6.674030 1.269823 -0.470990 1.486039 -23.892792 2.871754 177.243989 -53.487774 167.485209 -3.490454 -24.878030 22.252794 -4.746555 -43.986944 3.668601 -111.661807 86.245412 -106.816409 0.278268 -8.812886 -3.138007 0.507740 -0.940547 0.229424 0.237833 -40.454053 5.613016 71.359759 83.959174 61.042152 -6.018094 -12.748244 10.241647 0.410501 1.233957 0.201409
